<?xml version="1.0" encoding="utf-8"?>
<!-- Generator: Adobe Illustrator 25.0.0, SVG Export Plug-In . SVG Version: 6.00 Build 0)  -->
<svg version="1.1" id="Layer_1" xmlns="http://www.w3.org/2000/svg" xmlns:xlink="http://www.w3.org/1999/xlink" x="0px" y="0px"
	 viewBox="0 0 1362.5 354.3" style="enable-background:new 0 0 1362.5 354.3;" xml:space="preserve">
<style type="text/css">
	.st0{fill:#FFFFFF;}
	.st1{fill:#292929;}
	.st2{fill:#FFB200;}
	.st3{fill:#006BD0;}
</style>
<g id="Text_white">
	<path class="st0" d="M223.7,134.3h18.7v87.5h-18.7v-12.5c-7,9.9-18.5,15.5-30.6,14.9c-11.7,0.2-22.9-4.7-30.8-13.3
		c-8.4-8.8-12.9-20.6-12.5-32.7c-0.4-12.1,4.1-23.9,12.5-32.7c7.9-8.6,19.1-13.5,30.8-13.3c12-0.6,23.6,4.9,30.6,14.7V134.3z
		 M196,206.2c7.4,0.2,14.6-2.6,19.8-7.9c5.3-5.4,8.1-12.7,7.9-20.2c0.2-7.4-2.6-14.7-7.9-19.9c-11-10.7-28.6-10.7-39.6,0
		c-5.3,5.3-8.1,12.5-7.9,19.9c-0.2,7.5,2.6,14.8,7.9,20.1C181.5,203.4,188.6,206.3,196,206.2z"/>
	<path class="st0" d="M338.2,196.8c0,14.7-10.3,25-28.7,25h-44.8v-87.5H306c18,0,28.3,10,28.3,24.1c0.5,7.3-2.9,14.3-9.1,18.4
		C333.3,180.1,338.5,188.1,338.2,196.8z M282.7,150.2v19.7h21.9c7.7,0,11.6-3.3,11.6-9.8c0-6.5-3.8-9.6-11.6-9.6L282.7,150.2z
		 M307.7,205.2c7.9,0,11.9-3.5,11.9-10.4c0-6.9-4.4-9.6-11.9-9.6h-25v20H307.7z"/>
	<path class="st0" d="M422.8,134.3h18.7v87.5h-18.7v-12.5c-7,9.9-18.5,15.5-30.6,14.9c-11.7,0.2-22.9-4.7-30.8-13.3
		c-8.4-8.8-12.9-20.6-12.5-32.7c-0.4-12.1,4.1-23.9,12.5-32.7c7.9-8.6,19.1-13.5,30.8-13.3c12-0.6,23.6,4.9,30.6,14.7V134.3z
		 M395.2,206.2c7.4,0.2,14.5-2.6,19.7-7.9c5.3-5.4,8.1-12.7,7.9-20.2c0.2-7.4-2.6-14.7-7.9-19.9c-11-10.7-28.6-10.7-39.6,0
		c-5.3,5.3-8.1,12.5-7.9,19.9c-0.2,7.6,2.8,14.9,8.1,20.2C380.8,203.5,387.9,206.3,395.2,206.2z"/>
	<path class="st0" d="M522.8,134.3h18.7v87.5h-18.7v-34.7h-40.1v34.7H464v-87.5h18.7v34.8h40.1V134.3z"/>
	<path class="st0" d="M630.4,134.3v18.2h-28.6v69.3h-18.7v-69.2h-28.7v-18.3H630.4z"/>
	<path class="st0" d="M654.5,186.2c2.8,13.2,13.5,20.6,28,20.6c8.9,0.5,17.4-3.6,22.6-10.8l15.6,9.1c-8.5,12.7-23.1,20-38.3,19.1
		c-12.8,0.5-25.2-4.1-34.5-12.9c-8.7-8.7-13.5-20.7-13.1-33.1c-0.3-12.2,4.3-24,12.9-32.7c8.7-8.9,20.8-13.8,33.2-13.3
		c11.9-0.3,23.3,4.7,31.2,13.5c8.3,8.9,12.7,20.6,12.5,32.7c0,2.6-0.3,5.3-0.7,7.9H654.5z M705.8,170.8c-1.5-12.6-12.3-21.9-25-21.5
		c-13-0.7-24.4,8.6-26.4,21.5H705.8z"/>
	<path class="st0" d="M811.8,134.3v87.5h-18.7v-69.2h-29.2v32.6c0,27.8-12.5,38.8-35,36.7v-17.7c10.7,1.9,16.1-4,16.1-19.9v-50
		H811.8z"/>
	<path class="st0" d="M848.8,186.2c2.8,13.2,13.5,20.6,28,20.6c8.9,0.5,17.4-3.6,22.6-10.8l15.6,9.1c-8.5,12.7-23.1,20-38.4,19.1
		c-12.8,0.5-25.2-4.2-34.4-12.9c-8.7-8.7-13.5-20.7-13.1-33.1c-0.3-12.2,4.3-24,12.9-32.7c8.7-8.9,20.8-13.8,33.2-13.3
		c11.9-0.2,23.3,4.7,31.2,13.5c8.3,8.9,12.7,20.6,12.5,32.7c0,2.6-0.3,5.3-0.7,7.9H848.8z M900.1,170.8c-1.5-12.6-12.3-21.9-25-21.5
		c-13-0.7-24.5,8.6-26.4,21.5H900.1z"/>
	<path class="st0" d="M1013.1,221.8h-22.6l-35.9-40.4v40.4H936v-87.5h18.7V173l33.9-38.7h23.1l-38.5,42.9L1013.1,221.8z"/>
	<path class="st0" d="M1027.5,210.8c-8.9-8.6-13.8-20.5-13.5-32.8c-0.9-25.5,19-47,44.5-47.9c25.5-0.9,47,19,47.9,44.5
		c0,1.1,0,2.3,0,3.4c-0.3,25.6-21.3,46.2-46.9,46c-12-0.1-23.5-4.9-32-13.3V210.8z M1060.2,205.8c7.3,0.2,14.3-2.7,19.4-7.9
		c5.3-5.3,8.1-12.4,7.9-19.9c0.2-7.4-2.7-14.6-7.9-19.8c-10.8-10.5-28-10.5-38.8,0c-5.2,5.3-8.1,12.4-7.9,19.8
		c-0.2,7.4,2.6,14.5,7.9,19.7C1045.9,203,1052.9,205.9,1060.2,205.8z"/>
	<path class="st0" d="M1212.8,134.3v87.5h-18.4v-57.4l-25,40.1h-2.2l-25-39.9v57.3h-18.4v-87.5h19.2l25.4,40.4l25.1-40.4H1212.8z"/>
</g>
</svg>
