<?xml version="1.0" encoding="UTF-8" standalone="no"?>
<svg
   xmlns:dc="http://purl.org/dc/elements/1.1/"
   xmlns:cc="http://creativecommons.org/ns#"
   xmlns:rdf="http://www.w3.org/1999/02/22-rdf-syntax-ns#"
   xmlns:svg="http://www.w3.org/2000/svg"
   xmlns="http://www.w3.org/2000/svg"
   xmlns:sodipodi="http://sodipodi.sourceforge.net/DTD/sodipodi-0.dtd"
   xmlns:inkscape="http://www.inkscape.org/namespaces/inkscape"
   version="1.1"
   width="24"
   height="24"
   viewBox="0 0 24 24"
   id="svg2"
   inkscape:version="0.91 r13725"
   sodipodi:docname="phone_paused_grey.svg">
  <metadata
     id="metadata10">
    <rdf:RDF>
      <cc:Work
         rdf:about="">
        <dc:format>image/svg+xml</dc:format>
        <dc:type
           rdf:resource="http://purl.org/dc/dcmitype/StillImage" />
      </cc:Work>
    </rdf:RDF>
  </metadata>
  <defs
     id="defs8" />
  <sodipodi:namedview
     pagecolor="#ffffff"
     bordercolor="#666666"
     borderopacity="1"
     objecttolerance="10"
     gridtolerance="10"
     guidetolerance="10"
     inkscape:pageopacity="0"
     inkscape:pageshadow="2"
     inkscape:window-width="689"
     inkscape:window-height="480"
     id="namedview6"
     showgrid="false"
     inkscape:zoom="9.8333333"
     inkscape:cx="-3.7233464"
     inkscape:cy="12"
     inkscape:window-x="241"
     inkscape:window-y="150"
     inkscape:window-maximized="0"
     inkscape:current-layer="svg2" />
  <path
     d="M19,10H21V3H19M20,15.5C18.75,15.5 17.55,15.3 16.43,14.93C16.08,14.82 15.69,14.9 15.41,15.18L13.21,17.38C10.38,15.94 8.06,13.62 6.62,10.79L8.82,8.59C9.1,8.31 9.18,7.92 9.07,7.57C8.7,6.45 8.5,5.25 8.5,4A1,1 0 0,0 7.5,3H4A1,1 0 0,0 3,4A17,17 0 0,0 20,21A1,1 0 0,0 21,20V16.5A1,1 0 0,0 20,15.5M17,3H15V10H17V3Z"
     id="path4"
     style="fill:#cccccc;fill-opacity:1" />
</svg>
