<?xml version="1.0" encoding="UTF-8" standalone="no"?>
<svg
   xmlns:dc="http://purl.org/dc/elements/1.1/"
   xmlns:cc="http://creativecommons.org/ns#"
   xmlns:rdf="http://www.w3.org/1999/02/22-rdf-syntax-ns#"
   xmlns:svg="http://www.w3.org/2000/svg"
   xmlns="http://www.w3.org/2000/svg"
   xmlns:sodipodi="http://sodipodi.sourceforge.net/DTD/sodipodi-0.dtd"
   xmlns:inkscape="http://www.inkscape.org/namespaces/inkscape"
   version="1.1"
   width="24"
   height="24"
   viewBox="0 0 24 24"
   id="svg2"
   inkscape:version="0.91 r13725"
   sodipodi:docname="record_default.svg">
  <metadata
     id="metadata10">
    <rdf:RDF>
      <cc:Work
         rdf:about="">
        <dc:format>image/svg+xml</dc:format>
        <dc:type
           rdf:resource="http://purl.org/dc/dcmitype/StillImage" />
      </cc:Work>
    </rdf:RDF>
  </metadata>
  <defs
     id="defs8" />
  <sodipodi:namedview
     pagecolor="#ffffff"
     bordercolor="#666666"
     borderopacity="1"
     objecttolerance="10"
     gridtolerance="10"
     guidetolerance="10"
     inkscape:pageopacity="0"
     inkscape:pageshadow="2"
     inkscape:window-width="689"
     inkscape:window-height="480"
     id="namedview6"
     showgrid="false"
     inkscape:zoom="9.8333333"
     inkscape:cx="12"
     inkscape:cy="12"
     inkscape:window-x="0"
     inkscape:window-y="0"
     inkscape:window-maximized="0"
     inkscape:current-layer="svg2" />
  <path
     d="M18.5,15A3.5,3.5 0 0,1 15,11.5A3.5,3.5 0 0,1 18.5,8A3.5,3.5 0 0,1 22,11.5A3.5,3.5 0 0,1 18.5,15M5.5,15A3.5,3.5 0 0,1 2,11.5A3.5,3.5 0 0,1 5.5,8A3.5,3.5 0 0,1 9,11.5A3.5,3.5 0 0,1 5.5,15M18.5,6A5.5,5.5 0 0,0 13,11.5C13,12.83 13.47,14.05 14.26,15H9.74C10.53,14.05 11,12.83 11,11.5A5.5,5.5 0 0,0 5.5,6A5.5,5.5 0 0,0 0,11.5A5.5,5.5 0 0,0 5.5,17H18.5A5.5,5.5 0 0,0 24,11.5A5.5,5.5 0 0,0 18.5,6Z"
     id="path4"
     style="fill:#ffffff;fill-opacity:1" />
</svg>
