<?xml version="1.0" encoding="UTF-8"?>
<svg width="26px" height="30px" viewBox="0 0 26 30" version="1.1" xmlns="http://www.w3.org/2000/svg" xmlns:xlink="http://www.w3.org/1999/xlink">
    <!-- Generator: Sketch 47.1 (45422) - http://www.bohemiancoding.com/sketch -->
    <title>dialpad</title>
    <desc>Created with Sketch.</desc>
    <defs>
        <linearGradient x1="0%" y1="50%" x2="114.711425%" y2="53.6366701%" id="linearGradient-1">
            <stop stop-color="#E5322B" offset="0%"></stop>
            <stop stop-color="#A31418" offset="71.3229432%"></stop>
            <stop stop-color="#640014" offset="100%"></stop>
        </linearGradient>
    </defs>
    <g id="Page-1" stroke="none" stroke-width="1" fill="none" fill-rule="evenodd">
        <g id="callifi-lp-desktop-HD" transform="translate(-707.000000, -762.000000)" fill="url(#linearGradient-1)">
            <g id="segment:-biz" transform="translate(180.000000, 762.000000)">
                <path d="M547.833179,0.011594834 C546.567733,0.0665732097 545.90705,0.666897128 545.732462,1.91630984 L545.732462,1.91630984 C545.541452,3.28344618 545.581729,3.00550303 545.622893,2.72755988 L545.622893,2.72755988 C545.671492,2.39968682 545.721366,2.07175828 545.394325,4.44448296 L545.394325,4.44448296 C545.218239,5.72174546 545.707164,6.54231575 546.886841,6.6661974 L546.886841,6.6661974 C547.928323,6.77554389 548.996546,6.76577982 550.040969,6.67318758 L550.040969,6.67318758 C551.091161,6.58004057 551.64971,5.94826081 551.806768,4.9048367 L551.806768,4.9048367 C552.034115,3.39379127 551.772094,5.02355892 552.183572,1.94637874 L552.183572,1.94637874 C552.324319,0.893578907 551.669627,0.0992495601 550.609726,0.0284600471 L550.609726,0.0284600471 C550.315972,0.00887642796 549.537731,0 548.866174,0 L548.866174,0 C548.412089,0 548.006713,0.00404987025 547.833179,0.011594834 M540.272071,0.011594834 C539.006681,0.0665732097 538.346053,0.666897128 538.171465,1.91630984 L538.171465,1.91630984 C537.980455,3.28344618 538.020732,3.00550303 538.061896,2.72755988 L538.061896,2.72755988 C538.110495,2.39968682 538.160314,2.07175828 537.833217,4.44448296 L537.833217,4.44448296 C537.657242,5.72174546 538.146056,6.54231575 539.325789,6.6661974 L539.325789,6.6661974 C540.367327,6.77554389 541.435549,6.76577982 542.479972,6.67318758 L542.479972,6.67318758 C543.530109,6.58004057 544.088714,5.94826081 544.245715,4.9048367 L544.245715,4.9048367 C544.473063,3.39379127 544.211153,5.02355892 544.62252,1.94637874 L544.62252,1.94637874 C544.763267,0.893578907 544.108575,0.0992495601 543.048785,0.0284600471 L543.048785,0.0284600471 C542.754919,0.00887642796 541.976678,0 541.305177,0 L541.305177,0 C540.851036,0 540.445661,0.00404987025 540.272071,0.011594834 M532.644169,0.011594834 C531.378723,0.0665732097 530.718039,0.666897128 530.543506,1.91630984 L530.543506,1.91630984 C530.352441,3.28344618 530.392718,3.00550303 530.433883,2.72755988 L530.433883,2.72755988 C530.482425,2.39968682 530.532355,2.07175828 530.205315,4.44448296 L530.205315,4.44448296 C530.029173,5.72174546 530.518098,6.54231575 531.69783,6.6661974 L531.69783,6.6661974 C532.739257,6.77554389 533.807535,6.76577982 534.851903,6.67318758 L534.851903,6.67318758 C535.90215,6.58004057 536.460755,5.94826081 536.617757,4.9048367 L536.617757,4.9048367 C536.84516,3.39379127 536.583139,5.02355892 536.994506,1.94637874 L536.994506,1.94637874 C537.135308,0.893578907 536.480561,0.0992495601 535.420771,0.0284600471 L535.420771,0.0284600471 C535.126961,0.00887642796 534.34872,0 533.677218,0 L533.677218,0 C533.223023,0 532.817703,0.00404987025 532.644169,0.011594834 M546.779103,7.76310198 C545.513658,7.81808036 544.852974,8.41845975 544.678441,9.66787246 L544.678441,9.66787246 C544.487376,11.0349533 544.527653,10.7570102 544.568817,10.4791225 L544.568817,10.4791225 C544.61736,10.1512494 544.66729,9.82332091 544.340249,12.1960456 L544.340249,12.1960456 C544.164163,13.4732526 544.653088,14.2938229 545.832765,14.4177045 L545.832765,14.4177045 C546.874248,14.527051 547.94247,14.517287 548.986837,14.4246947 L548.986837,14.4246947 C550.037085,14.3316032 550.59569,13.699768 550.752692,12.6563438 L550.752692,12.6563438 C550.980039,11.1452984 550.718074,12.7751215 551.129441,9.69794136 L551.129441,9.69794136 C551.270188,8.64514153 550.615551,7.85081218 549.55565,7.78007815 L549.55565,7.78007815 C549.261618,7.76043905 548.482268,7.75150715 547.810322,7.75150715 L547.810322,7.75150715 C547.356959,7.75150715 546.952416,7.75555702 546.779103,7.76310198 M539.218051,7.76310198 C537.952605,7.81808036 537.291977,8.41845975 537.117389,9.66787246 L537.117389,9.66787246 C536.926379,11.0349533 536.966656,10.7570102 537.007821,10.4791225 L537.007821,10.4791225 C537.056419,10.1512494 537.106238,9.82332091 536.779197,12.1960456 L536.779197,12.1960456 C536.603166,13.4732526 537.092036,14.2938229 538.271713,14.4177045 L538.271713,14.4177045 C539.313251,14.527051 540.381418,14.517287 541.425896,14.4246947 L541.425896,14.4246947 C542.476033,14.3316032 543.034638,13.699768 543.19164,12.6563438 L543.19164,12.6563438 C543.418987,11.1452984 543.157021,12.7751215 543.568444,9.69794136 L543.568444,9.69794136 C543.709135,8.64514153 543.054499,7.85081218 541.994653,7.78007815 L541.994653,7.78007815 C541.700566,7.76043905 540.921271,7.75150715 540.249326,7.75150715 L540.249326,7.75150715 C539.795962,7.75150715 539.391363,7.75555702 539.218051,7.76310198 M531.590093,7.76310198 C530.324647,7.81808036 529.664019,8.41845975 529.489375,9.66787246 L529.489375,9.66787246 C529.298365,11.0349533 529.338587,10.7570102 529.379807,10.4791225 L529.379807,10.4791225 C529.428405,10.1512494 529.47828,9.82332091 529.151239,12.1960456 L529.151239,12.1960456 C528.975153,13.4732526 529.464022,14.2938229 530.643755,14.4177045 L530.643755,14.4177045 C531.685181,14.527051 532.75346,14.517287 533.797827,14.4246947 L533.797827,14.4246947 C534.848075,14.3316032 535.406679,13.699768 535.563681,12.6563438 L535.563681,12.6563438 C535.791029,11.1452984 535.529063,12.7751215 535.94043,9.69794136 L535.94043,9.69794136 C536.081232,8.64514153 535.42654,7.85081218 534.366695,7.78007815 L534.366695,7.78007815 C534.072608,7.76043905 533.293257,7.75150715 532.621312,7.75150715 L532.621312,7.75150715 C532.167948,7.75150715 531.763405,7.75555702 531.590093,7.76310198 M545.671048,15.5146091 C544.405658,15.569643 543.744974,16.1699114 543.570386,17.4193796 L543.570386,17.4193796 C543.379376,18.7865159 543.419597,18.5085728 543.460817,18.2306296 L543.460817,18.2306296 C543.509416,17.9027566 543.559235,17.5748281 543.232194,19.9475527 L543.232194,19.9475527 C543.056163,21.2248152 543.545032,22.04533 544.72471,22.1692117 L544.72471,22.1692117 C545.766192,22.2785582 546.834359,22.2688496 547.878837,22.1762574 L547.878837,22.1762574 C548.928974,22.0831103 549.487634,21.4512751 549.644636,20.407851 L549.644636,20.407851 C549.872039,18.896861 549.610018,20.5265732 550.021441,17.4494485 L550.021441,17.4494485 C550.162187,16.3966487 549.507551,15.6023193 548.447594,15.5315298 L548.447594,15.5315298 C548.153618,15.5119462 547.374656,15.5030698 546.702877,15.5030698 L546.702877,15.5030698 C546.249236,15.5030698 545.844471,15.5071196 545.671048,15.5146091 M538.109996,15.5146091 C536.844605,15.569643 536.183922,16.1699114 536.009333,17.4193796 L536.009333,17.4193796 C535.818324,18.7865159 535.858601,18.5085728 535.899765,18.2306296 L535.899765,18.2306296 C535.948363,17.9027566 535.998182,17.5748281 535.671141,19.9475527 L535.671141,19.9475527 C535.495111,21.2248152 535.98398,22.04533 537.163657,22.1692117 L537.163657,22.1692117 C538.205195,22.2785582 539.273418,22.2688496 540.317841,22.1762574 L540.317841,22.1762574 C541.367977,22.0831103 541.926638,21.4512751 542.083639,20.407851 L542.083639,20.407851 C542.310931,18.896861 542.048966,20.5265732 542.460388,17.4494485 L542.460388,17.4494485 C542.601135,16.3966487 541.946443,15.6023193 540.886653,15.5315298 L540.886653,15.5315298 C540.592677,15.5119462 539.813604,15.5030698 539.141825,15.5030698 L539.141825,15.5030698 C538.688184,15.5030698 538.283363,15.5071196 538.109996,15.5146091 M530.482037,15.5146091 C529.216591,15.569643 528.555908,16.1699114 528.381375,17.4193796 L528.381375,17.4193796 C528.190365,18.7865159 528.230587,18.5085728 528.271751,18.2305742 L528.271751,18.2305742 C528.32035,17.9027011 528.370224,17.5748281 528.043183,19.9475527 L528.043183,19.9475527 C527.867097,21.2248152 528.355966,22.04533 529.535754,22.1692117 L529.535754,22.1692117 C530.577181,22.2785582 531.645459,22.2688496 532.689827,22.1762574 L532.689827,22.1762574 C533.740075,22.0831103 534.298624,21.4512751 534.455626,20.407851 L534.455626,20.407851 C534.683029,18.896861 534.421008,20.5265732 534.83243,17.4494485 L534.83243,17.4494485 C534.973177,16.3966487 534.318485,15.6023193 533.258639,15.5315298 L533.258639,15.5315298 C532.964719,15.5119462 532.18559,15.5030698 531.513866,15.5030698 L531.513866,15.5030698 C531.060115,15.5030698 530.65546,15.5071196 530.482037,15.5146091 M544.662797,23.2661717 C543.397351,23.3211501 542.736667,23.9215295 542.562079,25.1709422 L542.562079,25.1709422 C542.371069,26.5380231 542.411346,26.2600799 542.452511,25.9821923 L542.452511,25.9821923 C542.501109,25.6542637 542.550983,25.3263352 542.223942,27.6991153 L542.223942,27.6991153 C542.047856,28.9763224 542.536726,29.7968927 543.716403,29.9207743 L543.716403,29.9207743 C544.757941,30.0301208 545.826163,30.0203567 546.870586,29.9277645 L546.870586,29.9277645 C547.920723,29.834673 548.479383,29.2028377 548.63644,28.1594136 L548.63644,28.1594136 C548.863677,26.6483682 548.601767,28.2781358 549.013134,25.2010111 L549.013134,25.2010111 C549.153881,24.1482113 548.499189,23.3538265 547.439399,23.2830924 L547.439399,23.2830924 C547.145422,23.2634533 546.366349,23.2545769 545.69457,23.2545769 L545.69457,23.2545769 C545.240929,23.2545769 544.836164,23.2586268 544.662797,23.2661717 M537.1018,23.2661717 C535.836298,23.3211501 535.175615,23.9215295 535.001082,25.1709422 L535.001082,25.1709422 C534.810072,26.5380231 534.850294,26.2600799 534.891458,25.9821923 L534.891458,25.9821923 C534.940057,25.6542637 534.989931,25.3263352 534.66289,27.6991153 L534.66289,27.6991153 C534.486804,28.9763224 534.975729,29.7968927 536.155462,29.9207743 L536.155462,29.9207743 C537.196888,30.0301208 538.265111,30.0203567 539.309534,29.9277645 L539.309534,29.9277645 C540.359726,29.834673 540.918331,29.2028377 541.075388,28.1594136 L541.075388,28.1594136 C541.302736,26.6483682 541.040715,28.2781358 541.452137,25.2010111 L541.452137,25.2010111 C541.592884,24.1482113 540.938192,23.3538265 539.878346,23.2830924 L539.878346,23.2830924 C539.584315,23.2634533 538.805353,23.2545769 538.133518,23.2545769 L538.133518,23.2545769 C537.679933,23.2545769 537.275167,23.2586268 537.1018,23.2661717 M529.47373,23.2661717 C528.20834,23.3211501 527.547712,23.9215295 527.373124,25.1709422 L527.373124,25.1709422 C527.182059,26.5380231 527.222335,26.2600799 527.263555,25.9821923 L527.263555,25.9821923 C527.312154,25.6542637 527.361973,25.3263352 527.034876,27.6991153 L527.034876,27.6991153 C526.858901,28.9763224 527.347715,29.7968927 528.527392,29.9207743 L528.527392,29.9207743 C529.56893,30.0301208 530.637097,30.0203567 531.681575,29.9277645 L531.681575,29.9277645 C532.731768,29.834673 533.290373,29.2028377 533.447374,28.1594136 L533.447374,28.1594136 C533.674722,26.6483682 533.412756,28.2781358 533.824123,25.2010111 L533.824123,25.2010111 C533.96487,24.1482113 533.310234,23.3538265 532.250388,23.2830924 L532.250388,23.2830924 C531.956356,23.2634533 531.177394,23.2545769 530.50556,23.2545769 L530.50556,23.2545769 C530.051974,23.2545769 529.647154,23.2586268 529.47373,23.2661717" id="dialpad"></path>
            </g>
        </g>
    </g>
</svg>